<?xml version="1.0" encoding="UTF-8"?><svg version="1.1" viewBox="0 0 24 24" xmlns="http://www.w3.org/2000/svg" xmlns:xlink="http://www.w3.org/1999/xlink"><!--Generated by IJSVG (https://github.com/iconjar/IJSVG)--><g fill="#000"><path d="M6.338,7.97c-0.139,-0.24 -0.445,-0.321 -0.683,-0.183l-0.601,0.347v-0.694c0,-0.276 -0.224,-0.5 -0.5,-0.5c-0.276,0 -0.5,0.224 -0.5,0.5v0.693l-0.601,-0.346c-0.239,-0.138 -0.545,-0.057 -0.683,0.183c-0.138,0.239 -0.056,0.545 0.183,0.683l0.601,0.347l-0.601,0.347c-0.239,0.138 -0.321,0.444 -0.183,0.683c0.093,0.161 0.261,0.25 0.434,0.25c0.085,0 0.171,-0.021 0.25,-0.067l0.601,-0.347v0.693c0,0.276 0.224,0.5 0.5,0.5c0.276,0 0.5,-0.224 0.5,-0.5v-0.693l0.601,0.347c0.079,0.045 0.165,0.067 0.25,0.067c0.173,0 0.341,-0.089 0.434,-0.25c0.138,-0.239 0.056,-0.545 -0.183,-0.683l-0.603,-0.347l0.601,-0.347c0.239,-0.138 0.321,-0.444 0.183,-0.683Z"></path><path d="M11.338,7.97c-0.139,-0.24 -0.446,-0.321 -0.683,-0.183l-0.601,0.347v-0.694c0,-0.276 -0.224,-0.5 -0.5,-0.5c-0.276,0 -0.5,0.224 -0.5,0.5v0.694l-0.6,-0.347c-0.239,-0.138 -0.545,-0.057 -0.683,0.183c-0.139,0.239 -0.057,0.545 0.183,0.683l0.6,0.347l-0.6,0.347c-0.24,0.138 -0.322,0.444 -0.183,0.683c0.093,0.161 0.261,0.25 0.434,0.25c0.085,0 0.171,-0.021 0.25,-0.067l0.601,-0.347v0.694c0,0.276 0.224,0.5 0.5,0.5c0.276,0 0.5,-0.224 0.5,-0.5v-0.694l0.601,0.347c0.079,0.045 0.165,0.067 0.25,0.067c0.173,0 0.341,-0.089 0.434,-0.25c0.138,-0.239 0.056,-0.545 -0.183,-0.683l-0.604,-0.347l0.601,-0.347c0.239,-0.138 0.321,-0.444 0.183,-0.683Z"></path><path d="M12.771,10.03c0.093,0.161 0.261,0.25 0.433,0.25c0.085,0 0.171,-0.021 0.25,-0.067l0.601,-0.347v0.694c0,0.276 0.224,0.5 0.5,0.5c0.276,0 0.5,-0.224 0.5,-0.5v-0.694l0.601,0.347c0.079,0.045 0.165,0.067 0.25,0.067c0.172,0 0.341,-0.089 0.433,-0.25c0.139,-0.239 0.057,-0.545 -0.183,-0.683l-0.601,-0.347l0.601,-0.347c0.239,-0.138 0.321,-0.444 0.183,-0.683c-0.138,-0.24 -0.444,-0.32 -0.683,-0.183l-0.601,0.347v-0.694c0,-0.276 -0.224,-0.5 -0.5,-0.5c-0.276,0 -0.5,0.224 -0.5,0.5v0.694l-0.601,-0.347c-0.238,-0.136 -0.544,-0.057 -0.683,0.183c-0.138,0.239 -0.056,0.545 0.183,0.683l0.601,0.347l-0.601,0.347c-0.239,0.138 -0.321,0.444 -0.183,0.683Z"></path><path d="M17.771,10.03c0.092,0.161 0.261,0.25 0.433,0.25c0.085,0 0.171,-0.021 0.25,-0.067l0.601,-0.347v0.694c0,0.276 0.224,0.5 0.5,0.5c0.276,0 0.5,-0.224 0.5,-0.5v-0.694l0.601,0.347c0.079,0.045 0.165,0.067 0.25,0.067c0.172,0 0.341,-0.089 0.433,-0.25c0.139,-0.239 0.057,-0.545 -0.183,-0.683l-0.601,-0.347l0.601,-0.347c0.239,-0.138 0.321,-0.444 0.183,-0.683c-0.138,-0.24 -0.444,-0.32 -0.683,-0.183l-0.601,0.347v-0.694c0,-0.276 -0.224,-0.5 -0.5,-0.5c-0.276,0 -0.5,0.224 -0.5,0.5v0.694l-0.601,-0.347c-0.238,-0.136 -0.545,-0.057 -0.683,0.183c-0.139,0.239 -0.057,0.545 0.183,0.683l0.601,0.347l-0.601,0.347c-0.239,0.138 -0.321,0.444 -0.183,0.683Z"></path><path d="M23.529,4h-23c-0.276,0 -0.5,0.224 -0.5,0.5v9c0,0.276 0.224,0.5 0.5,0.5h11.958c0.276,0 0.5,-0.224 0.5,-0.5c0,-0.276 -0.224,-0.5 -0.5,-0.5h-11.458v-8h22v8h-0.484c-0.276,0 -0.5,0.224 -0.5,0.5c0,0.276 0.224,0.5 0.5,0.5h0.984c0.276,0 0.5,-0.224 0.5,-0.5v-9c-3.55271e-15,-0.277 -0.223,-0.5 -0.5,-0.5Z"></path><path d="M17.558,12.107c-2.426,0 -4.398,1.973 -4.398,4.398c0,2.425 1.973,4.397 4.398,4.397c2.425,0 4.398,-1.973 4.398,-4.397c0,-2.425 -1.973,-4.398 -4.398,-4.398Zm0,7.796c-1.874,0 -3.398,-1.524 -3.398,-3.397c0,-1.874 1.524,-3.398 3.398,-3.398c1.874,0 3.398,1.524 3.398,3.398c0,1.873 -1.524,3.397 -3.398,3.397Z"></path><path d="M18.933,15.133l-2.011,2.15l-0.738,-0.789c-0.188,-0.201 -0.504,-0.212 -0.707,-0.023c-0.201,0.188 -0.212,0.505 -0.023,0.707l1.104,1.18c0.004,0.004 0.009,0.005 0.013,0.009c0.004,0.004 0.006,0.01 0.01,0.014c0.028,0.026 0.063,0.041 0.095,0.06c0.021,0.012 0.038,0.029 0.06,0.037c0.06,0.024 0.123,0.038 0.187,0.038c0.064,0 0.127,-0.013 0.187,-0.038c0.022,-0.009 0.039,-0.026 0.06,-0.037c0.032,-0.019 0.067,-0.033 0.095,-0.06c0.004,-0.004 0.006,-0.01 0.01,-0.014c0.004,-0.004 0.01,-0.005 0.013,-0.009l2.376,-2.54c0.188,-0.202 0.178,-0.519 -0.023,-0.707c-0.203,-0.19 -0.52,-0.179 -0.708,0.022Z"></path></g></svg>